<svg xmlns="http://www.w3.org/2000/svg" width="1200" height="900" viewBox="0 0 1200 900"><rect width="1200" height="900" fill="#fef2f2"/><circle cx="1010" cy="110" r="180" fill="#fecaca" opacity="0.75"/><circle cx="120" cy="760" r="220" fill="white" opacity="0.7"/><rect x="64" y="64" width="1068" height="768" rx="36" fill="white" opacity="0.72"/><g transform="translate(125 150)"><path d="M120 56c48 0 82 38 82 90v180c0 50-34 82-78 82s-72-32-72-82V146c0-52 24-90 68-90z" fill="#dc2626"/><path d="M278 56c48 0 82 38 82 90v180c0 50-34 82-78 82s-72-32-72-82V146c0-52 24-90 68-90z" fill="#fecaca"/><path d="M88 198h128M246 198h128" stroke="#7f1d1d" stroke-width="10" stroke-linecap="round" opacity="0.65"/></g><g transform="translate(70 80)"><rect width="180" height="38" rx="19" fill="#dc2626"/><text x="24" y="25" font-family="Arial, sans-serif" font-size="18" font-weight="700" fill="white">EastShop</text></g><text x="700" y="205" font-family="Arial, sans-serif" font-size="52" font-weight="800" fill="#7f1d1d">Nitrile Coated Grip</text><text x="700" y="261.16" font-family="Arial, sans-serif" font-size="52" font-weight="800" fill="#7f1d1d">Gloves</text><text x="704" y="382" font-family="Arial, sans-serif" font-size="25" font-weight="500" fill="#475569">Durable grip gloves for warehouse</text><text x="704" y="415.75" font-family="Arial, sans-serif" font-size="25" font-weight="500" fill="#475569">picking, equipment assembly, and light</text><text x="704" y="449.5" font-family="Arial, sans-serif" font-size="25" font-weight="500" fill="#475569">handling.</text><g transform="translate(480 284)"><rect width="250" height="54" rx="14" fill="white" opacity="0.92"/><text x="18" y="22" font-family="Arial, sans-serif" font-size="16" font-weight="700" fill="#7f1d1d">Sizes</text><text x="18" y="42" font-family="Arial, sans-serif" font-size="15" fill="#475569">M / L / XL</text></g><g transform="translate(480 356)"><rect width="250" height="54" rx="14" fill="white" opacity="0.92"/><text x="18" y="22" font-family="Arial, sans-serif" font-size="16" font-weight="700" fill="#7f1d1d">Package</text><text x="18" y="42" font-family="Arial, sans-serif" font-size="15" fill="#475569">12 pairs/bag</text></g><text x="74" y="812" font-family="Arial, sans-serif" font-size="22" font-weight="700" fill="#dc2626">gloves / PPE</text></svg>