<svg xmlns="http://www.w3.org/2000/svg" width="1200" height="900" viewBox="0 0 1200 900"><rect width="1200" height="900" fill="#fef2f2"/><rect x="58" y="58" width="1084" height="784" rx="34" fill="white" opacity="0.82"/><text x="92" y="132" font-family="Arial, sans-serif" font-size="24" font-weight="700" fill="#dc2626">Specification snapshot</text><text x="92" y="190" font-family="Arial, sans-serif" font-size="40" font-weight="800" fill="#7f1d1d">Nitrile Coated Grip Gloves</text><g transform="translate(92 240)"><rect width="520" height="76" rx="18" fill="white"/><rect width="8" height="76" rx="4" fill="#dc2626"/><text x="30" y="31" font-family="Arial, sans-serif" font-size="23" font-weight="800" fill="#7f1d1d">Size M</text><text x="30" y="58" font-family="Arial, sans-serif" font-size="19" fill="#64748b">$5.80 / NCG-M</text></g><g transform="translate(92 345)"><rect width="520" height="76" rx="18" fill="white"/><rect width="8" height="76" rx="4" fill="#dc2626"/><text x="30" y="31" font-family="Arial, sans-serif" font-size="23" font-weight="800" fill="#7f1d1d">Size L</text><text x="30" y="58" font-family="Arial, sans-serif" font-size="19" fill="#64748b">$5.80 / NCG-L</text></g><g transform="translate(92 450)"><rect width="520" height="76" rx="18" fill="white"/><rect width="8" height="76" rx="4" fill="#dc2626"/><text x="30" y="31" font-family="Arial, sans-serif" font-size="23" font-weight="800" fill="#7f1d1d">Size XL</text><text x="30" y="58" font-family="Arial, sans-serif" font-size="19" fill="#64748b">$6.20 / NCG-XL</text></g><g transform="translate(690 220) scale(0.72)"><g transform="translate(125 150)"><path d="M120 56c48 0 82 38 82 90v180c0 50-34 82-78 82s-72-32-72-82V146c0-52 24-90 68-90z" fill="#dc2626"/><path d="M278 56c48 0 82 38 82 90v180c0 50-34 82-78 82s-72-32-72-82V146c0-52 24-90 68-90z" fill="#fecaca"/><path d="M88 198h128M246 198h128" stroke="#7f1d1d" stroke-width="10" stroke-linecap="round" opacity="0.65"/></g></g><rect x="684" y="612" width="420" height="112" rx="22" fill="#fecaca" opacity="0.8"/><text x="714" y="650" font-family="Arial, sans-serif" font-size="22" font-weight="600" fill="#7f1d1d">Nitrile palm coating improves grip, while breathable</text><text x="714" y="679.7" font-family="Arial, sans-serif" font-size="22" font-weight="600" fill="#7f1d1d">knit backing supports long wear.</text></svg>