<svg xmlns="http://www.w3.org/2000/svg" width="800" height="600" viewBox="0 0 800 600"><rect width="800" height="600" fill="#edf8f2"/><path d="M250 115c55 0 92 45 92 104v190c0 54-39 87-85 87s-78-34-78-88V218c0-58 23-103 71-103z" fill="#f59e0b"/><path d="M455 115c55 0 92 45 92 104v190c0 54-39 87-85 87s-78-34-78-88V218c0-58 23-103 71-103z" fill="#fbbf24"/><path d="M222 250h110M428 250h110" stroke="#92400e" stroke-width="10" stroke-linecap="round"/><text x="80" y="540" font-family="Arial" font-size="42" font-weight="700" fill="#15202b">12kV Safety Gloves</text></svg>
