<svg xmlns="http://www.w3.org/2000/svg" width="1200" height="900" viewBox="0 0 1200 900"><rect width="1200" height="900" fill="#fafaf9"/><circle cx="1010" cy="110" r="180" fill="#e7e5e4" opacity="0.75"/><circle cx="120" cy="760" r="220" fill="white" opacity="0.7"/><rect x="64" y="64" width="1068" height="768" rx="36" fill="white" opacity="0.72"/><g transform="translate(150 130)"><rect x="168" y="92" width="190" height="160" rx="24" fill="#292524"/><circle cx="263" cy="172" r="64" fill="#fde68a"/><path d="M263 55V10M263 344v-45M150 172h-45M420 172h-45" stroke="#78716c" stroke-width="18" stroke-linecap="round"/><path d="M178 322h170l56 72H122z" fill="#78716c"/></g><g transform="translate(70 80)"><rect width="180" height="38" rx="19" fill="#78716c"/><text x="24" y="25" font-family="Arial, sans-serif" font-size="18" font-weight="700" fill="white">EastShop</text></g><text x="700" y="205" font-family="Arial, sans-serif" font-size="52" font-weight="800" fill="#292524">Magnetic LED Inspection</text><text x="700" y="261.16" font-family="Arial, sans-serif" font-size="52" font-weight="800" fill="#292524">Light</text><text x="704" y="382" font-family="Arial, sans-serif" font-size="25" font-weight="500" fill="#475569">Portable light for equipment repair,</text><text x="704" y="415.75" font-family="Arial, sans-serif" font-size="25" font-weight="500" fill="#475569">night inspection, and temporary</text><text x="704" y="449.5" font-family="Arial, sans-serif" font-size="25" font-weight="500" fill="#475569">lighting.</text><g transform="translate(480 284)"><rect width="250" height="54" rx="14" fill="white" opacity="0.92"/><text x="18" y="22" font-family="Arial, sans-serif" font-size="16" font-weight="700" fill="#292524">Brightness</text><text x="18" y="42" font-family="Arial, sans-serif" font-size="15" fill="#475569">800 lm</text></g><g transform="translate(480 356)"><rect width="250" height="54" rx="14" fill="white" opacity="0.92"/><text x="18" y="22" font-family="Arial, sans-serif" font-size="16" font-weight="700" fill="#292524">Runtime</text><text x="18" y="42" font-family="Arial, sans-serif" font-size="15" fill="#475569">4-6 h</text></g><text x="74" y="812" font-family="Arial, sans-serif" font-size="22" font-weight="700" fill="#78716c">LED / inspection</text></svg>