<svg xmlns="http://www.w3.org/2000/svg" width="1200" height="900" viewBox="0 0 1200 900"><rect width="1200" height="900" fill="#fafaf9"/><rect x="58" y="58" width="1084" height="784" rx="34" fill="white" opacity="0.82"/><text x="92" y="132" font-family="Arial, sans-serif" font-size="24" font-weight="700" fill="#78716c">Specification snapshot</text><text x="92" y="190" font-family="Arial, sans-serif" font-size="40" font-weight="800" fill="#292524">Magnetic LED Inspection Light</text><g transform="translate(92 240)"><rect width="520" height="76" rx="18" fill="white"/><rect width="8" height="76" rx="4" fill="#78716c"/><text x="30" y="31" font-family="Arial, sans-serif" font-size="23" font-weight="800" fill="#292524">Single light</text><text x="30" y="58" font-family="Arial, sans-serif" font-size="19" fill="#64748b">$13.50 / MIL-1</text></g><g transform="translate(92 345)"><rect width="520" height="76" rx="18" fill="white"/><rect width="8" height="76" rx="4" fill="#78716c"/><text x="30" y="31" font-family="Arial, sans-serif" font-size="23" font-weight="800" fill="#292524">Two-light kit</text><text x="30" y="58" font-family="Arial, sans-serif" font-size="19" fill="#64748b">$24.60 / MIL-2</text></g><g transform="translate(690 220) scale(0.72)"><g transform="translate(150 130)"><rect x="168" y="92" width="190" height="160" rx="24" fill="#292524"/><circle cx="263" cy="172" r="64" fill="#fde68a"/><path d="M263 55V10M263 344v-45M150 172h-45M420 172h-45" stroke="#78716c" stroke-width="18" stroke-linecap="round"/><path d="M178 322h170l56 72H122z" fill="#78716c"/></g></g><rect x="684" y="612" width="420" height="112" rx="22" fill="#e7e5e4" opacity="0.8"/><text x="714" y="650" font-family="Arial, sans-serif" font-size="22" font-weight="600" fill="#292524">Magnetic base attaches to metal surfaces, with USB</text><text x="714" y="679.7" font-family="Arial, sans-serif" font-size="22" font-weight="600" fill="#292524">charging and multi-angle adjustment.</text></svg>