<svg xmlns="http://www.w3.org/2000/svg" width="1200" height="900" viewBox="0 0 1200 900"><rect width="1200" height="900" fill="#fff7ed"/><rect x="58" y="58" width="1084" height="784" rx="34" fill="white" opacity="0.82"/><text x="92" y="132" font-family="Arial, sans-serif" font-size="24" font-weight="700" fill="#ea580c">Specification snapshot</text><text x="92" y="190" font-family="Arial, sans-serif" font-size="40" font-weight="800" fill="#7c2d12">Epoxy Floor Primer Set</text><g transform="translate(92 240)"><rect width="520" height="76" rx="18" fill="white"/><rect width="8" height="76" rx="4" fill="#ea580c"/><text x="30" y="31" font-family="Arial, sans-serif" font-size="23" font-weight="800" fill="#7c2d12">Standard</text><text x="30" y="58" font-family="Arial, sans-serif" font-size="19" fill="#64748b">$42.00 / EPS-STD</text></g><g transform="translate(92 345)"><rect width="520" height="76" rx="18" fill="white"/><rect width="8" height="76" rx="4" fill="#ea580c"/><text x="30" y="31" font-family="Arial, sans-serif" font-size="23" font-weight="800" fill="#7c2d12">Fast dry</text><text x="30" y="58" font-family="Arial, sans-serif" font-size="19" fill="#64748b">$49.00 / EPS-FD</text></g><g transform="translate(690 220) scale(0.72)"><g transform="translate(80 210)"><path d="M0 190 L250 48 L520 125 L270 295 Z" fill="#fed7aa" stroke="#7c2d12" stroke-width="6"/><path d="M72 154 L323 82 M146 230 L394 116 M235 65 L235 259 M340 92 L340 229" stroke="white" stroke-width="6" opacity="0.7"/><circle cx="470" cy="128" r="38" fill="#ea580c"/><path d="M452 128h36M470 110v36" stroke="white" stroke-width="9" stroke-linecap="round"/></g></g><rect x="684" y="612" width="420" height="112" rx="22" fill="#fed7aa" opacity="0.8"/><text x="714" y="650" font-family="Arial, sans-serif" font-size="22" font-weight="600" fill="#7c2d12">Suitable for ESD floors, wear-resistant floors, and</text><text x="714" y="679.7" font-family="Arial, sans-serif" font-size="22" font-weight="600" fill="#7c2d12">workshop renovation. Clean dust and oil before use.</text></svg>