<svg xmlns="http://www.w3.org/2000/svg" width="1200" height="900" viewBox="0 0 1200 900"><rect width="1200" height="900" fill="#f3f7ee"/><circle cx="1010" cy="110" r="180" fill="#bbf7d0" opacity="0.75"/><circle cx="120" cy="760" r="220" fill="white" opacity="0.7"/><rect x="64" y="64" width="1068" height="768" rx="36" fill="white" opacity="0.72"/><g transform="translate(80 210)"><path d="M0 190 L250 48 L520 125 L270 295 Z" fill="#bbf7d0" stroke="#14532d" stroke-width="6"/><path d="M72 154 L323 82 M146 230 L394 116 M235 65 L235 259 M340 92 L340 229" stroke="white" stroke-width="6" opacity="0.7"/><circle cx="470" cy="128" r="38" fill="#16a34a"/><path d="M452 128h36M470 110v36" stroke="white" stroke-width="9" stroke-linecap="round"/></g><g transform="translate(70 80)"><rect width="180" height="38" rx="19" fill="#16a34a"/><text x="24" y="25" font-family="Arial, sans-serif" font-size="18" font-weight="700" fill="white">EastShop</text></g><text x="700" y="205" font-family="Arial, sans-serif" font-size="52" font-weight="800" fill="#14532d">Steel Raised Access Floor</text><text x="700" y="261.16" font-family="Arial, sans-serif" font-size="52" font-weight="800" fill="#14532d">Panel</text><text x="704" y="382" font-family="Arial, sans-serif" font-size="25" font-weight="500" fill="#475569">Raised floor panel for data centers,</text><text x="704" y="415.75" font-family="Arial, sans-serif" font-size="25" font-weight="500" fill="#475569">equipment rooms, and clean control</text><text x="704" y="449.5" font-family="Arial, sans-serif" font-size="25" font-weight="500" fill="#475569">rooms.</text><g transform="translate(480 284)"><rect width="250" height="54" rx="14" fill="white" opacity="0.92"/><text x="18" y="22" font-family="Arial, sans-serif" font-size="16" font-weight="700" fill="#14532d">Size</text><text x="18" y="42" font-family="Arial, sans-serif" font-size="15" fill="#475569">600 x 600 mm</text></g><g transform="translate(480 356)"><rect width="250" height="54" rx="14" fill="white" opacity="0.92"/><text x="18" y="22" font-family="Arial, sans-serif" font-size="16" font-weight="700" fill="#14532d">Concentrated load</text><text x="18" y="42" font-family="Arial, sans-serif" font-size="15" fill="#475569">4450 N</text></g><text x="74" y="812" font-family="Arial, sans-serif" font-size="22" font-weight="700" fill="#16a34a">raised floor / data center</text></svg>