<svg xmlns="http://www.w3.org/2000/svg" width="1200" height="900" viewBox="0 0 1200 900"><rect width="1200" height="900" fill="#f7fee7"/><circle cx="1010" cy="110" r="180" fill="#d9f99d" opacity="0.75"/><circle cx="120" cy="760" r="220" fill="white" opacity="0.7"/><rect x="64" y="64" width="1068" height="768" rx="36" fill="white" opacity="0.72"/><g transform="translate(105 185)"><path d="M48 88h430l-46 230H88z" fill="#65a30d"/><path d="M88 318h344l-38 54H126z" fill="#365314" opacity="0.9"/><rect x="130" y="135" width="272" height="84" rx="12" fill="#d9f99d"/><path d="M48 88l44-52h392l-6 52" fill="#d9f99d"/></g><g transform="translate(70 80)"><rect width="180" height="38" rx="19" fill="#65a30d"/><text x="24" y="25" font-family="Arial, sans-serif" font-size="18" font-weight="700" fill="white">EastShop</text></g><text x="700" y="205" font-family="Arial, sans-serif" font-size="52" font-weight="800" fill="#365314">Heavy-duty Stackable</text><text x="700" y="261.16" font-family="Arial, sans-serif" font-size="52" font-weight="800" fill="#365314">Parts Crate</text><text x="704" y="382" font-family="Arial, sans-serif" font-size="25" font-weight="500" fill="#475569">Storage crate for hardware, electronic</text><text x="704" y="415.75" font-family="Arial, sans-serif" font-size="25" font-weight="500" fill="#475569">parts, and maintenance spares.</text><g transform="translate(480 284)"><rect width="250" height="54" rx="14" fill="white" opacity="0.92"/><text x="18" y="22" font-family="Arial, sans-serif" font-size="16" font-weight="700" fill="#365314">Size</text><text x="18" y="42" font-family="Arial, sans-serif" font-size="15" fill="#475569">350 x 220 x 160 mm</text></g><g transform="translate(480 356)"><rect width="250" height="54" rx="14" fill="white" opacity="0.92"/><text x="18" y="22" font-family="Arial, sans-serif" font-size="16" font-weight="700" fill="#365314">Material</text><text x="18" y="42" font-family="Arial, sans-serif" font-size="15" fill="#475569">PP</text></g><text x="74" y="812" font-family="Arial, sans-serif" font-size="22" font-weight="700" fill="#65a30d">storage / crate</text></svg>