<svg xmlns="http://www.w3.org/2000/svg" width="1200" height="900" viewBox="0 0 1200 900"><rect width="1200" height="900" fill="#f7fee7"/><rect x="58" y="58" width="1084" height="784" rx="34" fill="white" opacity="0.82"/><text x="92" y="132" font-family="Arial, sans-serif" font-size="24" font-weight="700" fill="#65a30d">Product details</text><text x="92" y="190" font-family="Arial, sans-serif" font-size="40" font-weight="800" fill="#365314">Heavy-duty Stackable Parts Crate</text><g transform="translate(92 240)"><rect width="520" height="76" rx="18" fill="white"/><rect width="8" height="76" rx="4" fill="#65a30d"/><text x="30" y="31" font-family="Arial, sans-serif" font-size="23" font-weight="800" fill="#365314">Size</text><text x="30" y="58" font-family="Arial, sans-serif" font-size="19" fill="#64748b">350 x 220 x 160 mm</text></g><g transform="translate(92 345)"><rect width="520" height="76" rx="18" fill="white"/><rect width="8" height="76" rx="4" fill="#65a30d"/><text x="30" y="31" font-family="Arial, sans-serif" font-size="23" font-weight="800" fill="#365314">Material</text><text x="30" y="58" font-family="Arial, sans-serif" font-size="19" fill="#64748b">PP</text></g><g transform="translate(690 220) scale(0.72)"><g transform="translate(105 185)"><path d="M48 88h430l-46 230H88z" fill="#65a30d"/><path d="M88 318h344l-38 54H126z" fill="#365314" opacity="0.9"/><rect x="130" y="135" width="272" height="84" rx="12" fill="#d9f99d"/><path d="M48 88l44-52h392l-6 52" fill="#d9f99d"/></g></g><rect x="684" y="612" width="420" height="112" rx="22" fill="#d9f99d" opacity="0.8"/><text x="714" y="650" font-family="Arial, sans-serif" font-size="22" font-weight="600" fill="#365314">Front opening supports quick access and color-coded</text><text x="714" y="679.7" font-family="Arial, sans-serif" font-size="22" font-weight="600" fill="#365314">sorting for shelves and workstations.</text></svg>