<svg xmlns="http://www.w3.org/2000/svg" width="1200" height="900" viewBox="0 0 1200 900"><rect width="1200" height="900" fill="#f5f3ff"/><circle cx="1010" cy="110" r="180" fill="#ddd6fe" opacity="0.75"/><circle cx="120" cy="760" r="220" fill="white" opacity="0.7"/><rect x="64" y="64" width="1068" height="768" rx="36" fill="white" opacity="0.72"/><g transform="translate(130 130)"><path d="M130 22h280l-36 78H166z" fill="#7c3aed"/><path d="M116 95h300v220c0 82-68 140-150 140S116 397 116 315z" fill="#ddd6fe" stroke="#7c3aed" stroke-width="10" opacity="0.9"/><path d="M170 150h185M170 205h185" stroke="white" stroke-width="12" stroke-linecap="round" opacity="0.75"/></g><g transform="translate(70 80)"><rect width="180" height="38" rx="19" fill="#7c3aed"/><text x="24" y="25" font-family="Arial, sans-serif" font-size="18" font-weight="700" fill="white">EastShop</text></g><text x="700" y="205" font-family="Arial, sans-serif" font-size="52" font-weight="800" fill="#2e1065">Clear Safety Face Shield</text><text x="704" y="382" font-family="Arial, sans-serif" font-size="25" font-weight="500" fill="#475569">Face protection for grinding, cutting,</text><text x="704" y="415.75" font-family="Arial, sans-serif" font-size="25" font-weight="500" fill="#475569">splash protection, and daily inspection.</text><g transform="translate(480 284)"><rect width="250" height="54" rx="14" fill="white" opacity="0.92"/><text x="18" y="22" font-family="Arial, sans-serif" font-size="16" font-weight="700" fill="#2e1065">Material</text><text x="18" y="42" font-family="Arial, sans-serif" font-size="15" fill="#475569">PET</text></g><g transform="translate(480 356)"><rect width="250" height="54" rx="14" fill="white" opacity="0.92"/><text x="18" y="22" font-family="Arial, sans-serif" font-size="16" font-weight="700" fill="#2e1065">Visor thickness</text><text x="18" y="42" font-family="Arial, sans-serif" font-size="15" fill="#475569">0.5 mm</text></g><text x="74" y="812" font-family="Arial, sans-serif" font-size="22" font-weight="700" fill="#7c3aed">face shield / safety</text></svg>