<svg xmlns="http://www.w3.org/2000/svg" width="1200" height="900" viewBox="0 0 1200 900"><rect width="1200" height="900" fill="#f5f3ff"/><rect x="58" y="58" width="1084" height="784" rx="34" fill="white" opacity="0.82"/><text x="92" y="132" font-family="Arial, sans-serif" font-size="24" font-weight="700" fill="#7c3aed">Specification snapshot</text><text x="92" y="190" font-family="Arial, sans-serif" font-size="40" font-weight="800" fill="#2e1065">Clear Safety Face Shield</text><g transform="translate(92 240)"><rect width="520" height="76" rx="18" fill="white"/><rect width="8" height="76" rx="4" fill="#7c3aed"/><text x="30" y="31" font-family="Arial, sans-serif" font-size="23" font-weight="800" fill="#2e1065">Single piece</text><text x="30" y="58" font-family="Arial, sans-serif" font-size="19" fill="#64748b">$3.50 / SFS-1</text></g><g transform="translate(92 345)"><rect width="520" height="76" rx="18" fill="white"/><rect width="8" height="76" rx="4" fill="#7c3aed"/><text x="30" y="31" font-family="Arial, sans-serif" font-size="23" font-weight="800" fill="#2e1065">20 pcs/box</text><text x="30" y="58" font-family="Arial, sans-serif" font-size="19" fill="#64748b">$58.00 / SFS-20</text></g><g transform="translate(690 220) scale(0.72)"><g transform="translate(130 130)"><path d="M130 22h280l-36 78H166z" fill="#7c3aed"/><path d="M116 95h300v220c0 82-68 140-150 140S116 397 116 315z" fill="#ddd6fe" stroke="#7c3aed" stroke-width="10" opacity="0.9"/><path d="M170 150h185M170 205h185" stroke="white" stroke-width="12" stroke-linecap="round" opacity="0.75"/></g></g><rect x="684" y="612" width="420" height="112" rx="22" fill="#ddd6fe" opacity="0.8"/><text x="714" y="650" font-family="Arial, sans-serif" font-size="22" font-weight="600" fill="#2e1065">Wide clear visor with adjustable headband, compatible</text><text x="714" y="679.7" font-family="Arial, sans-serif" font-size="22" font-weight="600" fill="#2e1065">with masks and safety goggles.</text></svg>