<svg xmlns="http://www.w3.org/2000/svg" width="1200" height="900" viewBox="0 0 1200 900"><rect width="1200" height="900" fill="#ecfeff"/><circle cx="1010" cy="110" r="180" fill="#a5f3fc" opacity="0.75"/><circle cx="120" cy="760" r="220" fill="white" opacity="0.7"/><rect x="64" y="64" width="1068" height="768" rx="36" fill="white" opacity="0.72"/><g transform="translate(90 180)"><rect x="80" y="120" width="370" height="116" rx="20" fill="#0891b2"/><path d="M98 120l42-78h330" fill="none" stroke="#164e63" stroke-width="18" stroke-linecap="round" stroke-linejoin="round"/><circle cx="150" cy="270" r="38" fill="#164e63"/><circle cx="400" cy="270" r="38" fill="#164e63"/><circle cx="150" cy="270" r="16" fill="white"/><circle cx="400" cy="270" r="16" fill="white"/></g><g transform="translate(70 80)"><rect width="180" height="38" rx="19" fill="#0891b2"/><text x="24" y="25" font-family="Arial, sans-serif" font-size="18" font-weight="700" fill="white">EastShop</text></g><text x="700" y="205" font-family="Arial, sans-serif" font-size="52" font-weight="800" fill="#164e63">Folding Silent Platform</text><text x="700" y="261.16" font-family="Arial, sans-serif" font-size="52" font-weight="800" fill="#164e63">Cart</text><text x="704" y="382" font-family="Arial, sans-serif" font-size="25" font-weight="500" fill="#475569">Platform cart for moving boxes and</text><text x="704" y="415.75" font-family="Arial, sans-serif" font-size="25" font-weight="500" fill="#475569">supplies in warehouses, shops, and</text><text x="704" y="449.5" font-family="Arial, sans-serif" font-size="25" font-weight="500" fill="#475569">offices.</text><g transform="translate(480 284)"><rect width="250" height="54" rx="14" fill="white" opacity="0.92"/><text x="18" y="22" font-family="Arial, sans-serif" font-size="16" font-weight="700" fill="#164e63">Platform size</text><text x="18" y="42" font-family="Arial, sans-serif" font-size="15" fill="#475569">720 x 480 mm</text></g><g transform="translate(480 356)"><rect width="250" height="54" rx="14" fill="white" opacity="0.92"/><text x="18" y="22" font-family="Arial, sans-serif" font-size="16" font-weight="700" fill="#164e63">Load capacity</text><text x="18" y="42" font-family="Arial, sans-serif" font-size="15" fill="#475569">150 kg</text></g><text x="74" y="812" font-family="Arial, sans-serif" font-size="22" font-weight="700" fill="#0891b2">cart / warehouse</text></svg>