<svg xmlns="http://www.w3.org/2000/svg" width="1200" height="900" viewBox="0 0 1200 900"><rect width="1200" height="900" fill="#f8fafc"/><circle cx="1010" cy="110" r="180" fill="#cbd5e1" opacity="0.75"/><circle cx="120" cy="760" r="220" fill="white" opacity="0.7"/><rect x="64" y="64" width="1068" height="768" rx="36" fill="white" opacity="0.72"/><g transform="translate(120 150)"><rect width="420" height="300" rx="36" fill="#475569"/><circle cx="330" cy="80" r="58" fill="#cbd5e1"/></g><g transform="translate(70 80)"><rect width="180" height="38" rx="19" fill="#475569"/><text x="24" y="25" font-family="Arial, sans-serif" font-size="18" font-weight="700" fill="white">EastShop</text></g><text x="700" y="205" font-family="Arial, sans-serif" font-size="52" font-weight="800" fill="#111827">Anti-static Wrist Strap</text><text x="700" y="261.16" font-family="Arial, sans-serif" font-size="52" font-weight="800" fill="#111827">Kit</text><text x="704" y="382" font-family="Arial, sans-serif" font-size="25" font-weight="500" fill="#475569">Personal grounding kit for electronics</text><text x="704" y="415.75" font-family="Arial, sans-serif" font-size="25" font-weight="500" fill="#475569">repair, assembly, and inspection</text><text x="704" y="449.5" font-family="Arial, sans-serif" font-size="25" font-weight="500" fill="#475569">stations.</text><g transform="translate(480 284)"><rect width="250" height="54" rx="14" fill="white" opacity="0.92"/><text x="18" y="22" font-family="Arial, sans-serif" font-size="16" font-weight="700" fill="#111827">Cord length</text><text x="18" y="42" font-family="Arial, sans-serif" font-size="15" fill="#475569">1.8 m</text></g><g transform="translate(480 356)"><rect width="250" height="54" rx="14" fill="white" opacity="0.92"/><text x="18" y="22" font-family="Arial, sans-serif" font-size="16" font-weight="700" fill="#111827">Safety resistor</text><text x="18" y="42" font-family="Arial, sans-serif" font-size="15" fill="#475569">1 Mohm</text></g><text x="74" y="812" font-family="Arial, sans-serif" font-size="22" font-weight="700" fill="#475569">ESD / wrist strap</text></svg>