<svg xmlns="http://www.w3.org/2000/svg" width="1200" height="900" viewBox="0 0 1200 900"><rect width="1200" height="900" fill="#eff6ff"/><circle cx="1010" cy="110" r="180" fill="#dbeafe" opacity="0.75"/><circle cx="120" cy="760" r="220" fill="white" opacity="0.7"/><rect x="64" y="64" width="1068" height="768" rx="36" fill="white" opacity="0.72"/><g transform="translate(185 105)"><rect x="86" y="0" width="224" height="378" rx="32" fill="#172554"/><rect x="124" y="48" width="148" height="72" rx="10" fill="#dbeafe"/><circle cx="198" cy="220" r="56" fill="#1d4ed8"/><path d="M350 72l150-58M352 128h170M350 184l150 58" stroke="#ef4444" stroke-width="10" stroke-linecap="round"/></g><g transform="translate(70 80)"><rect width="180" height="38" rx="19" fill="#1d4ed8"/><text x="24" y="25" font-family="Arial, sans-serif" font-size="18" font-weight="700" fill="white">EastShop</text></g><text x="700" y="205" font-family="Arial, sans-serif" font-size="52" font-weight="800" fill="#172554">Digital Laser Level</text><text x="704" y="382" font-family="Arial, sans-serif" font-size="25" font-weight="500" fill="#475569">Measurement tool for flooring work,</text><text x="704" y="415.75" font-family="Arial, sans-serif" font-size="25" font-weight="500" fill="#475569">shelf installation, and equipment</text><text x="704" y="449.5" font-family="Arial, sans-serif" font-size="25" font-weight="500" fill="#475569">positioning.</text><g transform="translate(480 284)"><rect width="250" height="54" rx="14" fill="white" opacity="0.92"/><text x="18" y="22" font-family="Arial, sans-serif" font-size="16" font-weight="700" fill="#172554">Working range</text><text x="18" y="42" font-family="Arial, sans-serif" font-size="15" fill="#475569">30 m</text></g><g transform="translate(480 356)"><rect width="250" height="54" rx="14" fill="white" opacity="0.92"/><text x="18" y="22" font-family="Arial, sans-serif" font-size="16" font-weight="700" fill="#172554">Accuracy</text><text x="18" y="42" font-family="Arial, sans-serif" font-size="15" fill="#475569">+/- 1.5 mm</text></g><text x="74" y="812" font-family="Arial, sans-serif" font-size="22" font-weight="700" fill="#1d4ed8">laser / level</text></svg>