<svg xmlns="http://www.w3.org/2000/svg" width="1200" height="900" viewBox="0 0 1200 900"><rect width="1200" height="900" fill="#eff6ff"/><rect x="58" y="58" width="1084" height="784" rx="34" fill="white" opacity="0.82"/><text x="92" y="132" font-family="Arial, sans-serif" font-size="24" font-weight="700" fill="#1d4ed8">Product details</text><text x="92" y="190" font-family="Arial, sans-serif" font-size="40" font-weight="800" fill="#172554">Digital Laser Level</text><g transform="translate(92 240)"><rect width="520" height="76" rx="18" fill="white"/><rect width="8" height="76" rx="4" fill="#1d4ed8"/><text x="30" y="31" font-family="Arial, sans-serif" font-size="23" font-weight="800" fill="#172554">Working range</text><text x="30" y="58" font-family="Arial, sans-serif" font-size="19" fill="#64748b">30 m</text></g><g transform="translate(92 345)"><rect width="520" height="76" rx="18" fill="white"/><rect width="8" height="76" rx="4" fill="#1d4ed8"/><text x="30" y="31" font-family="Arial, sans-serif" font-size="23" font-weight="800" fill="#172554">Accuracy</text><text x="30" y="58" font-family="Arial, sans-serif" font-size="19" fill="#64748b">+/- 1.5 mm</text></g><g transform="translate(690 220) scale(0.72)"><g transform="translate(185 105)"><rect x="86" y="0" width="224" height="378" rx="32" fill="#172554"/><rect x="124" y="48" width="148" height="72" rx="10" fill="#dbeafe"/><circle cx="198" cy="220" r="56" fill="#1d4ed8"/><path d="M350 72l150-58M352 128h170M350 184l150 58" stroke="#ef4444" stroke-width="10" stroke-linecap="round"/></g></g><rect x="684" y="612" width="420" height="112" rx="22" fill="#dbeafe" opacity="0.8"/><text x="714" y="650" font-family="Arial, sans-serif" font-size="22" font-weight="600" fill="#172554">Projects horizontal and vertical lines with digital</text><text x="714" y="679.7" font-family="Arial, sans-serif" font-size="22" font-weight="600" fill="#172554">angle display for quick on-site alignment.</text></svg>